<?xml version="1.0" encoding="utf-8"?>
<!-- Generator: Adobe Illustrator 24.2.0, SVG Export Plug-In . SVG Version: 6.00 Build 0)  -->
<svg version="1.1" id="Capa_1" xmlns="http://www.w3.org/2000/svg" xmlns:xlink="http://www.w3.org/1999/xlink" x="0px" y="0px"
	 viewBox="0 0 194 172" style="enable-background:new 0 0 194 172;" xml:space="preserve">
<style type="text/css">
	.st0{fill:#4D4D4D;}
</style>
<g>
	<path class="st0" d="M180.9,159.2h-15.55V80.91c5.43-1.09,9.54-5.9,9.54-11.64V22.32c0-6.55-5.32-11.87-11.87-11.87H30.11
		c-6.55,0-11.87,5.32-11.87,11.87v46.94c0,5.83,4.23,10.69,9.78,11.68v78.25H13.1c-0.92,0-1.68,0.75-1.68,1.68
		c0,0.93,0.75,1.68,1.68,1.68h35.8V81.14h9.4v-3.35H30.11c-4.7,0-8.52-3.82-8.52-8.52V41h149.94v28.27c0,4.7-3.82,8.52-8.52,8.52
		h-27.9v3.35h9.34v81.42h36.44c0.92,0,1.68-0.75,1.68-1.68C182.57,159.95,181.82,159.2,180.9,159.2z M31.37,81.14h14.18v78.06H31.37
		V81.14z M21.59,37.64V22.32c0-4.7,3.82-8.52,8.52-8.52h132.9c4.7,0,8.52,3.82,8.52,8.52v15.32H21.59z M161.99,159.2h-14.18V81.14
		h14.18L161.99,159.2L161.99,159.2z"/>
	<path class="st0" d="M54.94,50.33v52.62c0,4.83,3.93,8.76,8.76,8.76h65.99c4.83,0,8.76-3.92,8.76-8.75l0.01-21.82l0-3.35
		l0.02-27.45L54.94,50.33L54.94,50.33z M135.11,81.14l-0.02,21.82c0,2.98-2.43,5.4-5.4,5.4H63.71c-2.98,0-5.41-2.42-5.41-5.4V53.69
		h76.83l-0.02,24.09V81.14z"/>
	<path class="st0" d="M141.68,53.99H52.17c-1.09,0-1.98-0.89-1.98-1.98s0.89-1.98,1.98-1.98h89.51c1.09,0,1.98,0.89,1.98,1.98
		S142.77,53.99,141.68,53.99z"/>
	<path class="st0" d="M122.91,72.78H70.94c-1.08,0-1.96-0.88-1.96-1.96v-0.04c0-1.08,0.88-1.96,1.96-1.96h51.96
		c1.08,0,1.96,0.88,1.96,1.96v0.04C124.87,71.9,123.99,72.78,122.91,72.78z"/>
	<path class="st0" d="M122.91,82.67H70.94c-1.08,0-1.96-0.88-1.96-1.96v-0.04c0-1.08,0.88-1.96,1.96-1.96h51.96
		c1.08,0,1.96,0.88,1.96,1.96v0.04C124.87,81.8,123.99,82.67,122.91,82.67z"/>
	<path class="st0" d="M122.91,92.56H70.94c-1.08,0-1.96-0.88-1.96-1.96v-0.04c0-1.08,0.88-1.96,1.96-1.96h51.96
		c1.08,0,1.96,0.88,1.96,1.96v0.04C124.87,91.69,123.99,92.56,122.91,92.56z"/>
	<path class="st0" d="M157.29,32.59c-3.8,0-6.9-3.1-6.9-6.9s3.1-6.9,6.9-6.9s6.9,3.1,6.9,6.9S161.09,32.59,157.29,32.59z
		 M157.29,22.15c-1.95,0-3.55,1.59-3.55,3.55c0,1.96,1.59,3.55,3.55,3.55s3.55-1.59,3.55-3.55
		C160.83,23.74,159.24,22.15,157.29,22.15z"/>
	<path class="st0" d="M142.45,32.59c-3.8,0-6.9-3.1-6.9-6.9s3.1-6.9,6.9-6.9c3.8,0,6.9,3.1,6.9,6.9S146.26,32.59,142.45,32.59z
		 M142.45,22.15c-1.96,0-3.55,1.59-3.55,3.55c0,1.96,1.59,3.55,3.55,3.55s3.55-1.59,3.55-3.55C146,23.74,144.41,22.15,142.45,22.15z
		"/>
</g>
</svg>
