<?xml version="1.0" encoding="utf-8"?>
<!-- Generator: Adobe Illustrator 24.2.0, SVG Export Plug-In . SVG Version: 6.00 Build 0)  -->
<svg version="1.1" id="Capa_1" xmlns="http://www.w3.org/2000/svg" xmlns:xlink="http://www.w3.org/1999/xlink" x="0px" y="0px"
	 viewBox="0 0 64 68" style="enable-background:new 0 0 64 68;" xml:space="preserve">
<style type="text/css">
	.st0{fill:#FFFFFF;}
</style>
<g>
	<circle class="st0" cx="31.71" cy="34.73" r="5.05"/>
	<path class="st0" d="M38.03,22.32H25.39c-1.84,0-3.45,0.57-4.48,1.61s-1.61,2.64-1.61,4.48v12.64c0,1.84,0.57,3.45,1.72,4.59
		c1.15,1.03,2.64,1.61,4.48,1.61h12.52c1.84,0,3.45-0.57,4.48-1.61c1.15-1.03,1.72-2.64,1.72-4.48V28.53c0-1.84-0.57-3.33-1.61-4.48
		C41.48,22.9,39.98,22.32,38.03,22.32z M31.71,42.54c-4.37,0-7.81-3.56-7.81-7.81c0-4.37,3.56-7.81,7.81-7.81s7.93,3.45,7.93,7.81
		S36.08,42.54,31.71,42.54z M39.87,28.41c-1.03,0-1.84-0.8-1.84-1.84s0.8-1.84,1.84-1.84s1.84,0.8,1.84,1.84S40.9,28.41,39.87,28.41
		z"/>
	<path class="st0" d="M31.94,6.24C16.32,6.24,3.68,18.88,3.68,34.5s12.64,28.26,28.26,28.26S60.2,50.12,60.2,34.5
		C60.32,18.88,47.57,6.24,31.94,6.24z M46.99,41.16c0,2.64-0.92,4.94-2.53,6.55s-3.91,2.41-6.43,2.41H25.51
		c-2.53,0-4.82-0.8-6.43-2.41c-1.72-1.61-2.53-3.91-2.53-6.55V28.53c0-5.28,3.56-8.96,8.96-8.96h12.64c2.64,0,4.82,0.92,6.43,2.53
		c1.61,1.61,2.41,3.79,2.41,6.43L46.99,41.16z"/>
</g>
</svg>
