<?xml version="1.0" encoding="utf-8"?>
<!-- Generator: Adobe Illustrator 24.2.0, SVG Export Plug-In . SVG Version: 6.00 Build 0)  -->
<svg version="1.1" id="Capa_1" xmlns="http://www.w3.org/2000/svg" xmlns:xlink="http://www.w3.org/1999/xlink" x="0px" y="0px"
	 viewBox="0 0 61 67" style="enable-background:new 0 0 61 67;" xml:space="preserve">
<style type="text/css">
	.st0{fill:#00BBA6;}
</style>
<path class="st0" d="M55.63,45.68c-2.32-2.39-8.92-6.85-13.25-6.85c-1,0-1.88,0.22-2.59,0.68c-2.12,1.35-3.8,2.4-4.61,2.4
	c-0.45,0-0.92-0.4-1.97-1.3l-0.17-0.16c-2.91-2.53-3.53-3.18-4.66-4.36l-0.29-0.3c-0.21-0.21-0.38-0.4-0.56-0.57
	c-0.99-1.02-1.7-1.75-4.23-4.61l-0.11-0.13c-1.21-1.37-2-2.26-2.05-2.91c-0.05-0.64,0.51-1.67,1.92-3.59
	c1.72-2.32,1.78-5.18,0.21-8.51c-1.26-2.62-3.31-5.14-5.12-7.35l-0.16-0.19c-1.56-1.91-3.37-2.86-5.39-2.86
	c-2.24,0-4.1,1.21-5.09,1.84C7.43,6.95,7.35,7.02,7.27,7.06c-2.21,1.4-3.82,3.32-4.42,5.28c-0.91,2.94-1.51,6.76,2.83,14.69
	c3.75,6.87,7.16,11.48,12.56,17.03c5.09,5.22,7.35,6.9,12.4,10.56c5.63,4.07,11.04,6.41,14.82,6.41c3.51,0,6.28,0,10.23-4.75
	C59.83,51.29,58.11,48.24,55.63,45.68z"/>
</svg>
