<?xml version="1.0" encoding="utf-8"?>
<!-- Generator: Adobe Illustrator 24.2.0, SVG Export Plug-In . SVG Version: 6.00 Build 0)  -->
<svg version="1.1" id="Capa_1" xmlns="http://www.w3.org/2000/svg" xmlns:xlink="http://www.w3.org/1999/xlink" x="0px" y="0px"
	 viewBox="0 0 90 96" style="enable-background:new 0 0 90 96;" xml:space="preserve">
<style type="text/css">
	.st0{fill:#FFFFFF;}
</style>
<path class="st0" d="M74.81,63.53c-2.76-2.84-10.62-8.16-15.77-8.16c-1.19,0-2.23,0.27-3.09,0.81c-2.52,1.61-4.52,2.86-5.49,2.86
	c-0.53,0-1.1-0.47-2.35-1.55l-0.21-0.19c-3.46-3.01-4.2-3.79-5.55-5.19l-0.34-0.36c-0.25-0.25-0.45-0.47-0.66-0.68
	c-1.17-1.21-2.03-2.08-5.04-5.49l-0.13-0.15c-1.44-1.63-2.39-2.69-2.44-3.46c-0.06-0.76,0.61-1.99,2.29-4.28
	c2.04-2.76,2.12-6.17,0.25-10.13c-1.5-3.12-3.94-6.11-6.1-8.75l-0.19-0.23c-1.86-2.27-4.01-3.41-6.42-3.41
	c-2.67,0-4.88,1.44-6.06,2.2c-0.09,0.06-0.19,0.13-0.28,0.19c-2.63,1.67-4.54,3.96-5.26,6.28c-1.08,3.5-1.8,8.05,3.37,17.49
	c4.47,8.18,8.52,13.67,14.95,20.27c6.06,6.21,8.75,8.22,14.77,12.57c6.7,4.85,13.14,7.63,17.64,7.63c4.18,0,7.48,0,12.17-5.66
	C79.81,70.21,77.77,66.58,74.81,63.53z"/>
</svg>
