<?xml version="1.0" encoding="utf-8"?>
<!-- Generator: Adobe Illustrator 24.2.0, SVG Export Plug-In . SVG Version: 6.00 Build 0)  -->
<svg version="1.1" id="Capa_1" xmlns="http://www.w3.org/2000/svg" xmlns:xlink="http://www.w3.org/1999/xlink" x="0px" y="0px"
	 viewBox="0 0 194 172" style="enable-background:new 0 0 194 172;" xml:space="preserve">
<style type="text/css">
	.st0{fill:#4D4D4D;}
</style>
<g>
	<path class="st0" d="M76.31,57.2c1.26,0,2.44-0.14,3.63-0.49v16.4c0,0.91,0.35,1.74,0.98,2.44c0.63,0.63,1.54,0.98,2.37,0.98l0,0
		h16.26c-0.28,1.12-0.42,2.3-0.42,3.49c0,7.68,6.21,13.88,13.82,13.88c7.68,0,13.88-6.21,13.88-13.88c0-1.19-0.14-2.37-0.42-3.49
		h16.12c1.88,0,3.42-1.54,3.42-3.42v-16.4c1.19,0.35,2.37,0.49,3.63,0.49c3.7,0,7.19-1.47,9.77-4.12c2.65-2.65,4.05-6.14,4.05-9.77
		c0-7.61-6.21-13.82-13.82-13.82c-1.26,0-2.44,0.14-3.63,0.49V13.87c0-0.91-0.35-1.74-0.98-2.44c-0.63-0.63-1.54-0.98-2.37-0.98l0,0
		l-21.91,0.07c-1.33,0-2.58,0.84-3.14,2.02c-0.56,1.26-0.28,2.72,0.63,3.7c1.19,1.26,1.88,3,1.88,4.74c0,3.91-3.14,7.05-7.05,7.05
		c-3.91,0-7.05-3.14-7.05-7.05c0-1.74,0.7-3.49,1.88-4.74c0.98-0.98,1.19-2.44,0.7-3.7c-0.56-1.26-1.74-2.09-3.14-2.09H83.36
		c-0.91,0-1.74,0.35-2.44,0.98c-0.63,0.63-0.98,1.54-0.98,2.44v16.05c-1.19-0.35-2.37-0.49-3.63-0.49
		c-7.61,0-13.82,6.21-13.82,13.82C62.43,50.99,68.64,57.2,76.31,57.2z M76.31,36.33c2.23,0,3.84,0.98,4.81,1.88s2.44,1.12,3.7,0.56
		c1.26-0.56,2.02-1.74,2.02-3.14V17.28h12.77c-0.35,1.19-0.49,2.44-0.49,3.7c0,7.68,6.21,13.88,13.88,13.88
		c7.61,0,13.82-6.21,13.82-13.88c0-1.26-0.14-2.51-0.49-3.7h12.77v18.35c0,1.33,0.77,2.58,2.02,3.14c1.19,0.56,2.65,0.35,3.63-0.56
		c0.91-0.84,2.51-1.88,4.81-1.88c3.91,0,7.05,3.14,7.05,7.05c0,1.88-0.7,3.63-2.02,4.95c-1.33,1.33-3.14,2.09-5.02,2.09
		c-1.74,0-3.42-0.63-4.67-1.81c-0.98-0.91-2.44-1.19-3.7-0.63c-1.26,0.56-2.02,1.74-2.02,3.14v18.56H120.9
		c-1.33,0-2.58,0.77-3.07,2.02c-0.56,1.19-0.35,2.65,0.56,3.63c1.12,1.33,1.74,2.93,1.74,4.67c0,3.91-3.14,7.05-7.05,7.05
		c-3.91,0-7.05-3.14-7.05-7.05c0-1.74,0.63-3.42,1.74-4.67c0.91-0.98,1.12-2.44,0.56-3.63s-1.74-2.02-3.07-2.02l0,0H86.85V51.12
		c0-1.33-0.77-2.58-2.02-3.14s-2.65-0.35-3.63,0.56c-0.91,0.84-2.51,1.88-4.81,1.88c-3.91,0-7.05-3.14-7.05-7.05
		C69.27,39.47,72.4,36.33,76.31,36.33z"/>
	<path class="st0" d="M179.72,103.39c-3.28-3.98-8.58-5.37-13.33-3.35l-43.33,18.21c-1.74,0.7-2.58,2.72-1.81,4.47
		c0.7,1.74,2.72,2.58,4.47,1.81l43.33-18.21c1.88-0.77,4.05-0.28,5.37,1.4c0.84,1.05,1.19,2.3,0.98,3.56
		c-0.21,1.33-0.91,2.44-2.02,3.14c-18.84,12.35-61.82,36.63-63.91,37.82c-0.07,0.07-0.14,0.07-0.28,0.14l0,0
		c-5.23,3.14-11.09,3.98-18.56,2.65c-0.49-0.07-10.26-1.26-33.56-4.12l-12.84-1.54v-47.59c2.02-0.14,3.84-0.21,4.61-0.21h0.35
		c16.33-1.05,31.96,2.09,48.49,5.44c2.09,0.42,4.26,0.84,6.35,1.26c2.3,0.42,3.98,2.51,3.98,4.81c0,0.14,0,0.28-0.07,0.63
		c-0.14,1.4-0.84,2.3-1.4,2.86c-0.91,0.91-2.16,1.4-3.49,1.4H70.1c-1.88,0-3.42,1.54-3.42,3.42s1.54,3.42,3.42,3.42h33.07
		c3.07,0,6.14-1.26,8.3-3.42c1.88-1.88,3-4.33,3.28-6.77c0.07-0.49,0.14-1.05,0.14-1.54c0-5.58-3.98-10.47-9.49-11.51
		c-2.09-0.42-4.26-0.84-6.35-1.26c-16.26-3.28-33-6.7-50.24-5.58h-0.28c-0.77,0-2.51,0.14-4.47,0.21c-0.35-1.47-1.67-2.58-3.28-2.58
		H14.77c-1.88,0-3.42,1.54-3.42,3.42v59.03c0,1.88,1.54,3.42,3.42,3.42h26.1c1.4,0,2.58-0.84,3.14-2.02l12.28,1.54
		c13.68,1.67,32.44,3.98,33.28,4.12c2.58,0.49,5.09,0.7,7.47,0.7c5.79,0,10.95-1.4,15.63-4.12c0.07,0,0.07-0.07,0.14-0.07
		c0.42-0.28,44.93-25.4,64.33-38.1c2.72-1.74,4.54-4.61,5.02-7.74C182.65,109.18,181.74,105.9,179.72,103.39z M37.45,151.39H18.19
		V99.2h19.33v52.19H37.45z"/>
</g>
</svg>
