<?xml version="1.0" encoding="utf-8"?>
<!-- Generator: Adobe Illustrator 24.2.0, SVG Export Plug-In . SVG Version: 6.00 Build 0)  -->
<svg version="1.1" id="Capa_1" xmlns="http://www.w3.org/2000/svg" xmlns:xlink="http://www.w3.org/1999/xlink" x="0px" y="0px"
	 viewBox="0 0 170 172" style="enable-background:new 0 0 170 172;" xml:space="preserve">
<style type="text/css">
	.st0{fill:#4D4D4D;}
</style>
<g>
	<path class="st0" d="M85,40.87C62.99,41.8,45.37,59.42,44.44,81.43c0.08,10.75,4.23,21.08,11.61,28.9
		c5.13,4.09,8.29,10.18,8.67,16.73c0,2.8,2.27,5.07,5.07,5.07h30.42c2.8,0,5.07-2.27,5.07-5.07c0.32-6.52,3.45-12.58,8.57-16.63
		c7.69-7.67,11.92-18.14,11.71-29c0.01-11.11-4.45-21.76-12.37-29.56C105.66,44.55,95.5,40.58,85,40.87z M107,103.13
		c-5.74,4.89-9.75,11.5-11.41,18.86H74.4c-1.65-7.29-5.55-13.87-11.15-18.81c-5.49-5.92-8.58-13.68-8.67-21.75
		C55.32,64.95,68.52,51.75,85,51.01c7.8-0.27,15.36,2.66,20.94,8.11c6.03,5.86,9.45,13.9,9.48,22.31c0.18,8.09-2.91,15.92-8.57,21.7
		L107,103.13z"/>
	<path class="st0" d="M100.21,137.2H69.79c-2.8,0-5.07,2.27-5.07,5.07s2.27,5.07,5.07,5.07h30.42c2.8,0,5.07-2.27,5.07-5.07
		S103.01,137.2,100.21,137.2z"/>
	<path class="st0" d="M95.14,152.41H74.86c-2.8,0-5.07,2.27-5.07,5.07s2.27,5.07,5.07,5.07h20.28c2.8,0,5.07-2.27,5.07-5.07
		S97.94,152.41,95.14,152.41z"/>
	<path class="st0" d="M85,30.73c2.8,0,5.07-2.27,5.07-5.07V15.52c0-2.8-2.27-5.07-5.07-5.07c-2.8,0-5.07,2.27-5.07,5.07v10.14
		C79.93,28.46,82.2,30.73,85,30.73z"/>
	<path class="st0" d="M29.23,76.36H19.09c-2.8,0-5.07,2.27-5.07,5.07c0,2.8,2.27,5.07,5.07,5.07h10.14c2.8,0,5.07-2.27,5.07-5.07
		C34.3,78.63,32.03,76.36,29.23,76.36z"/>
	<path class="st0" d="M150.91,76.36h-10.14c-2.8,0-5.07,2.27-5.07,5.07c0,2.8,2.27,5.07,5.07,5.07h10.14c2.8,0,5.07-2.27,5.07-5.07
		C155.98,78.63,153.71,76.36,150.91,76.36z"/>
	<path class="st0" d="M135.2,31.23c-1.98-1.97-5.17-1.97-7.15,0l-7.2,7.15c-1.99,1.97-2,5.18-0.03,7.17
		c0.01,0.01,0.02,0.02,0.03,0.03c0.96,0.95,2.25,1.48,3.6,1.47c1.35,0.01,2.64-0.52,3.6-1.47l7.15-7.2
		C137.16,36.41,137.16,33.21,135.2,31.23z"/>
	<path class="st0" d="M49.15,45.58c1.99-1.97,2-5.18,0.03-7.17c-0.01-0.01-0.02-0.02-0.03-0.03l-7.2-7.15
		c-2.13-1.82-5.33-1.57-7.15,0.55c-1.63,1.9-1.63,4.7,0,6.6l7.15,7.2c0.96,0.95,2.25,1.48,3.6,1.47
		C46.9,47.06,48.2,46.53,49.15,45.58z"/>
</g>
</svg>
