<?xml version="1.0" encoding="utf-8"?>
<!-- Generator: Adobe Illustrator 24.2.0, SVG Export Plug-In . SVG Version: 6.00 Build 0)  -->
<svg version="1.1" id="Capa_1" xmlns="http://www.w3.org/2000/svg" xmlns:xlink="http://www.w3.org/1999/xlink" x="0px" y="0px"
	 viewBox="0 0 1138 346" style="enable-background:new 0 0 1138 346;" xml:space="preserve">
<style type="text/css">
	.st0{opacity:0.8;}
	.st1{fill:none;}
	.st2{fill:#FFFFFF;}
</style>
<g class="st0">
	<path class="st1" d="M891,282.65c-1.77-1.12-3.75-1.67-5.95-1.67c-3.13,0-5.82,1.07-8.07,3.22c-2.25,2.15-3.38,5.73-3.38,10.76
		c0,4.02,1.08,7.19,3.24,9.51c2.16,2.31,4.88,3.47,8.14,3.47c3.32,0,6.06-1.17,8.21-3.51c2.15-2.34,3.22-5.65,3.22-9.95
		c0-2.72-0.46-5.09-1.38-7.12C894.11,285.34,892.77,283.77,891,282.65z"/>
	<path class="st1" d="M616.18,282.63c-1.77-1.12-3.75-1.67-5.95-1.67c-3.13,0-5.82,1.07-8.07,3.22c-2.25,2.15-3.38,5.73-3.38,10.76
		c0,4.02,1.08,7.19,3.24,9.51c2.16,2.31,4.88,3.47,8.14,3.47c3.32,0,6.06-1.17,8.21-3.51c2.15-2.34,3.22-5.65,3.22-9.95
		c0-2.72-0.46-5.09-1.38-7.12C619.29,285.31,617.95,283.74,616.18,282.63z"/>
	<path class="st1" d="M1079.77,281.3c-0.42,2.14-1.02,4.27-1.8,6.38l-3.67,9.79l11.32,0l-3.48-9.24
		C1081.07,285.41,1080.28,283.1,1079.77,281.3z"/>
	<path class="st1" d="M801.42,281.27c-0.43,2.14-1.03,4.27-1.8,6.38l-3.67,9.79l11.32,0l-3.48-9.24
		C802.72,285.38,801.93,283.07,801.42,281.27z"/>
	<path class="st2" d="M581.33,305.77c-1.72,1.43-3.81,2.14-6.28,2.14c-2.03,0-3.92-0.52-5.67-1.57c-1.75-1.05-3.03-2.63-3.86-4.75
		c-0.83-2.12-1.24-4.6-1.24-7.43c0-2.2,0.35-4.34,1.05-6.41c0.7-2.07,1.91-3.72,3.63-4.95c1.72-1.23,3.87-1.84,6.43-1.84
		c2.23,0,4.08,0.55,5.56,1.66s2.6,2.88,3.37,5.31l4.35-1.03c-0.9-3.08-2.48-5.47-4.76-7.17c-2.28-1.7-5.09-2.55-8.42-2.55
		c-2.95,0-5.64,0.67-8.09,2.02c-2.45,1.34-4.34,3.31-5.67,5.9c-1.33,2.59-1.99,5.62-1.99,9.1c0,3.19,0.59,6.17,1.76,8.95
		c1.18,2.78,2.89,4.9,5.15,6.37s5.18,2.2,8.78,2.2c3.48,0,6.42-0.95,8.82-2.86s4.07-4.67,5-8.3l-4.42-1.12
		C584.21,302.23,583.05,304.34,581.33,305.77z"/>
	<path class="st2" d="M618.54,279.36c-2.47-1.47-5.25-2.21-8.33-2.21c-4.71,0-8.55,1.57-11.52,4.7c-2.98,3.14-4.46,7.47-4.46,13.01
		c0,2.93,0.64,5.71,1.91,8.33c1.27,2.63,3.15,4.7,5.62,6.22c2.47,1.52,5.28,2.28,8.42,2.28c2.9,0,5.6-0.69,8.11-2.06
		c2.51-1.37,4.44-3.4,5.81-6.07c1.37-2.67,2.05-5.7,2.05-9.09c0-3.34-0.65-6.33-1.95-8.96C622.9,282.89,621.01,280.83,618.54,279.36
		z M618.36,304.41c-2.15,2.34-4.88,3.51-8.21,3.51c-3.26,0-5.98-1.16-8.14-3.47c-2.16-2.31-3.24-5.48-3.24-9.51
		c0-5.02,1.13-8.61,3.38-10.76c2.25-2.15,4.95-3.22,8.07-3.22c2.2,0,4.19,0.56,5.95,1.67c1.77,1.12,3.11,2.69,4.03,4.71
		c0.92,2.03,1.38,4.4,1.38,7.12C621.59,298.75,620.51,302.07,618.36,304.41z"/>
	<path class="st2" d="M650.5,300.97c-0.81,2.35-1.4,4.14-1.78,5.35c-0.33-1.09-0.86-2.74-1.59-4.94l-7.9-23.64l-6.65,0l0,33.38
		l4.26,0l0-28.42l9.65,28.42l3.98,0l9.7-27.94l0,27.94l4.26,0l0-33.38l-5.94,0L650.5,300.97z"/>
	<path class="st2" d="M694.36,297.01c0,4.19-0.69,7.02-2.07,8.49s-3.7,2.21-6.94,2.21c-1.9,0-3.5-0.37-4.82-1.12
		c-1.31-0.74-2.24-1.8-2.78-3.18c-0.54-1.37-0.81-3.51-0.81-6.41l0-19.26l-4.42,0l0,19.29c0,3.54,0.42,6.33,1.27,8.37
		c0.85,2.04,2.27,3.6,4.26,4.68c1.99,1.08,4.55,1.62,7.67,1.62c3.22,0,5.82-0.62,7.8-1.86c1.98-1.24,3.35-2.84,4.11-4.81
		c0.76-1.97,1.14-4.64,1.14-7.99l0-19.29l-4.42,0L694.36,297.01z"/>
	<polygon class="st2" points="729.03,303.96 711.5,277.75 706.97,277.75 706.97,311.13 711.2,311.13 711.21,284.9 728.74,311.14 
		733.27,311.14 733.27,277.75 729.04,277.75 	"/>
	<rect x="742.33" y="277.76" class="st2" width="4.42" height="33.38"/>
	<path class="st2" d="M775.76,305.79c-1.72,1.43-3.81,2.14-6.28,2.14c-2.03,0-3.92-0.52-5.67-1.57c-1.75-1.05-3.03-2.63-3.86-4.75
		c-0.83-2.12-1.24-4.6-1.24-7.43c0-2.2,0.35-4.34,1.05-6.41c0.7-2.07,1.91-3.72,3.63-4.95c1.72-1.23,3.87-1.84,6.43-1.84
		c2.23,0,4.08,0.55,5.56,1.66c1.47,1.11,2.6,2.88,3.37,5.31l4.35-1.03c-0.9-3.08-2.48-5.47-4.76-7.17c-2.28-1.7-5.09-2.55-8.42-2.55
		c-2.95,0-5.64,0.67-8.09,2.02c-2.45,1.34-4.34,3.31-5.67,5.9c-1.33,2.59-1.99,5.62-1.99,9.1c0,3.19,0.59,6.17,1.76,8.95
		c1.18,2.78,2.89,4.9,5.15,6.37c2.25,1.46,5.18,2.2,8.78,2.2c3.48,0,6.42-0.95,8.82-2.86s4.07-4.67,5-8.3l-4.42-1.12
		C778.63,302.24,777.47,304.36,775.76,305.79z"/>
	<path class="st2" d="M799.14,277.76l-12.82,33.38l4.69,0l3.67-10.11l13.96,0l3.89,10.11l5.03,0l-13.66-33.38L799.14,277.76z
		 M795.95,297.43l3.67-9.79c0.77-2.11,1.37-4.24,1.8-6.38c0.52,1.81,1.3,4.11,2.37,6.92l3.48,9.24L795.95,297.43z"/>
	<path class="st2" d="M842.31,305.8c-1.72,1.43-3.81,2.14-6.28,2.14c-2.03,0-3.92-0.52-5.67-1.57c-1.75-1.05-3.03-2.63-3.86-4.75
		c-0.83-2.12-1.24-4.6-1.24-7.43c0-2.2,0.35-4.34,1.05-6.41c0.7-2.07,1.91-3.72,3.63-4.95c1.72-1.23,3.87-1.84,6.43-1.84
		c2.23,0,4.08,0.55,5.56,1.66c1.47,1.11,2.6,2.88,3.37,5.31l4.35-1.03c-0.9-3.08-2.48-5.47-4.76-7.17c-2.28-1.7-5.09-2.55-8.42-2.55
		c-2.95,0-5.64,0.67-8.09,2.02c-2.45,1.34-4.34,3.31-5.67,5.9c-1.33,2.59-1.99,5.62-1.99,9.1c0,3.19,0.59,6.17,1.76,8.95
		c1.18,2.78,2.89,4.9,5.15,6.37s5.18,2.2,8.78,2.2c3.48,0,6.42-0.95,8.82-2.86s4.07-4.67,5-8.3l-4.42-1.12
		C845.19,302.25,844.02,304.37,842.31,305.8z"/>
	<rect x="857.29" y="277.77" class="st2" width="4.42" height="33.38"/>
	<polygon class="st2" points="890.61,269.35 885.23,269.35 882.2,275.72 885.6,275.72 	"/>
	<path class="st2" d="M893.36,279.39c-2.47-1.47-5.25-2.21-8.33-2.21c-4.71,0-8.55,1.57-11.52,4.7c-2.98,3.14-4.46,7.47-4.46,13.01
		c0,2.93,0.64,5.71,1.91,8.33c1.28,2.63,3.15,4.7,5.62,6.22c2.47,1.52,5.28,2.28,8.43,2.28c2.9,0,5.6-0.69,8.11-2.06
		c2.51-1.37,4.44-3.4,5.81-6.07c1.37-2.67,2.05-5.7,2.05-9.09c0-3.34-0.65-6.33-1.95-8.96
		C897.72,282.91,895.83,280.86,893.36,279.39z M893.19,304.43c-2.15,2.34-4.88,3.51-8.21,3.51c-3.26,0-5.98-1.16-8.14-3.47
		c-2.16-2.31-3.24-5.48-3.24-9.51c0-5.02,1.13-8.61,3.38-10.76c2.26-2.15,4.95-3.22,8.07-3.22c2.2,0,4.19,0.56,5.95,1.67
		c1.77,1.12,3.11,2.69,4.03,4.71c0.92,2.03,1.38,4.4,1.38,7.12C896.41,298.78,895.33,302.1,893.19,304.43z"/>
	<polygon class="st2" points="929.56,303.98 912.03,277.77 907.5,277.77 907.49,311.15 911.73,311.15 911.73,284.92 929.26,311.16 
		933.8,311.16 933.8,277.77 929.56,277.77 	"/>
	<path class="st2" d="M969.56,302.03c-0.68,1.82-1.28,3.64-1.8,5.46c-0.47-1.7-1.05-3.52-1.75-5.46l-8.67-24.25l-4.78,0l12.93,33.38
		l4.53,0l13.07-33.38l-4.51,0L969.56,302.03z"/>
	<rect x="988.69" y="277.78" class="st2" width="4.42" height="33.38"/>
	<path class="st2" d="M1021.16,293.59c-1.34-0.61-3.8-1.32-7.39-2.13c-3.59-0.81-5.81-1.61-6.66-2.38c-0.87-0.77-1.3-1.76-1.3-2.96
		c0-1.38,0.61-2.56,1.83-3.54c1.22-0.98,3.17-1.47,5.84-1.47c2.56,0,4.5,0.54,5.82,1.62c1.31,1.08,2.08,2.67,2.31,4.78l4.23-0.32
		c-0.08-1.96-0.62-3.71-1.64-5.26c-1.02-1.55-2.47-2.72-4.36-3.52c-1.89-0.8-4.07-1.2-6.55-1.2c-2.25,0-4.29,0.38-6.13,1.14
		c-1.84,0.76-3.23,1.87-4.19,3.34c-0.96,1.47-1.44,3.04-1.44,4.73c0,1.53,0.39,2.92,1.17,4.16c0.78,1.24,1.97,2.27,3.56,3.11
		c1.23,0.65,3.38,1.35,6.44,2.08c3.07,0.74,5.05,1.28,5.94,1.63c1.4,0.53,2.4,1.19,3.01,1.97c0.61,0.78,0.91,1.7,0.91,2.74
		c0,1.03-0.32,1.99-0.95,2.86c-0.63,0.87-1.59,1.56-2.88,2.06c-1.29,0.5-2.78,0.75-4.46,0.75c-1.9,0-3.6-0.33-5.12-0.99
		c-1.52-0.66-2.64-1.52-3.36-2.6c-0.72-1.07-1.18-2.44-1.38-4.11l-4.17,0.36c0.06,2.23,0.67,4.23,1.83,6
		c1.16,1.77,2.76,3.09,4.8,3.97c2.04,0.88,4.57,1.32,7.59,1.32c2.38,0,4.53-0.44,6.43-1.31s3.37-2.09,4.38-3.67
		c1.02-1.57,1.53-3.24,1.53-5.02c0-1.79-0.46-3.37-1.39-4.75S1023.1,294.48,1021.16,293.59z"/>
	<path class="st2" d="M1055.68,297.05c0,4.19-0.69,7.02-2.07,8.49c-1.38,1.47-3.7,2.21-6.95,2.21c-1.9,0-3.5-0.37-4.82-1.12
		c-1.31-0.74-2.24-1.8-2.78-3.18c-0.54-1.37-0.81-3.51-0.81-6.41l0-19.26l-4.42,0l0,19.29c0,3.54,0.42,6.33,1.27,8.37
		c0.85,2.04,2.27,3.6,4.26,4.68c1.99,1.08,4.55,1.62,7.67,1.62c3.22,0,5.82-0.62,7.8-1.86c1.98-1.24,3.35-2.84,4.11-4.81
		c0.76-1.97,1.14-4.64,1.14-7.99l0-19.29l-4.42,0L1055.68,297.05z"/>
	<path class="st2" d="M1077.49,277.79l-12.82,33.38l4.69,0l3.67-10.11l13.96,0l3.89,10.11l5.03,0l-13.66-33.38L1077.49,277.79z
		 M1074.3,297.46l3.67-9.79c0.77-2.11,1.37-4.24,1.8-6.38c0.52,1.81,1.31,4.11,2.37,6.92l3.48,9.24L1074.3,297.46z"/>
	<polygon class="st2" points="1104.56,307.23 1104.56,277.79 1100.15,277.79 1100.14,311.17 1121,311.18 1121,307.24 	"/>
	<path class="st2" d="M736.68,140.22l-38.27,0l28.93,70.69l-33.17,0l16.79-35.04l-32.13,0l-31.03,56.97l10.64,0
		c-30.4,10.57-68.41,16.86-109.66,16.86c60.93,7.48,116.44,0.28,151.4-16.85l68.95,0.01L736.68,140.22z"/>
	<path class="st2" d="M542.71,60.99l0,24.73c2.02-0.03,4.05-0.05,6.09-0.05c3.37,0,6.73,0.05,10.06,0.13
		c62.72,1.57,116.9,17.68,146.49,41.03l25.27,0c-29.55-38.69-99.82-65.9-181.81-65.91C546.76,60.93,544.73,60.94,542.71,60.99z"/>
	<path class="st2" d="M766.47,126.85l20.22,0C759.61,57.13,663.33,13.25,548.71,13.24c-3.56,0-7.11,0.05-10.63,0.15l0,34.1
		c3.53-0.16,7.07-0.3,10.63-0.39C661.01,44.14,739.25,77.35,766.47,126.85z"/>
	<path class="st2" d="M525.61,97.31c-72.65-8.92-137.6,3.02-169.19,27.8l33.68,0C423.19,108.07,471.64,97.3,525.61,97.31z"/>
	<path class="st2" d="M315.14,231.31c1.66-0.35,3.29-0.78,4.89-1.3c3.92-1.26,7.31-2.9,10.2-4.89c3.21-2.21,5.81-4.93,7.78-8.12
		c1.97-3.21,3.11-6.51,3.4-9.91c0.53-6.24-1.49-11.34-6.06-15.32c-1.53-1.36-3.14-2.43-4.83-3.25c-1.69-0.82-3.99-1.66-6.87-2.52
		c3.84-1.4,6.84-2.77,8.99-4.1c2.17-1.33,4.05-2.93,5.66-4.79c3.07-3.53,4.81-7.65,5.22-12.37c0.32-3.85-0.38-7.43-2.11-10.76
		c-1.74-3.33-4.31-6.04-7.72-8.11c-5.1-3.04-11.44-4.78-19.02-5.23c-4.95-0.33-11.27-0.48-18.95-0.48l-42.62,0l-1.88,22l44.03,0
		c4.03,0,7,0.52,8.89,1.57c1.9,1.03,2.76,2.62,2.57,4.75c-0.15,1.76-1,3.26-2.55,4.47c-1.09,0.87-2.57,1.47-4.46,1.83
		c-1.89,0.37-4.4,0.54-7.56,0.54l-42.05,0l-1.88,22l41.96,0c4.91,0,8.17,0.62,9.77,1.84c1.53,1.22,2.21,2.78,2.05,4.68
		c-0.16,1.99-1.19,3.66-3.07,5.02c-1.88,1.32-5.15,1.97-9.81,1.97l-42.05,0l-1.87,21.94l48.32,0
		c33.27,62.34,124.65,100.95,232.17,100.97c3.56,0,7.12-0.05,10.63-0.15l0-34.1c-3.52,0.16-7.07,0.3-10.63,0.39
		C422.05,302.63,347.43,274.56,315.14,231.31z"/>
	<path class="st2" d="M105.14,148.84c-3.95-3.17-8.7-5.41-14.26-6.72c-5.56-1.31-13-1.97-22.32-1.97l-43.66,0l-1.88,22l40.16,0
		c5.54,0,9.45,0.52,11.73,1.56c2.27,1.04,3.31,2.76,3.1,5.16c-0.2,2.31-1.58,4.1-4.14,5.36c-1.12,0.59-2.61,1-4.45,1.22
		c-1.85,0.23-4.41,0.34-7.68,0.34l-39.88,0L17,232.76l35.15,0l2.98-34.97l11.34,0c8.38,0,15.22-0.65,20.53-1.97
		c5.31-1.31,10.24-3.55,14.8-6.72c3.76-2.67,6.72-5.73,8.91-9.17c2.18-3.44,3.43-7.04,3.76-10.8c0.32-3.76-0.34-7.42-1.99-11
		C110.83,154.57,108.38,151.47,105.14,148.84z"/>
	<path class="st2" d="M192.73,210.85l-16.35,0c-3.02,0-5.41-0.14-7.15-0.41c-1.74-0.27-3.12-0.75-4.13-1.43
		c-1.31-0.86-2.16-1.98-2.55-3.36c-0.39-1.38-0.45-3.56-0.2-6.55l5.03-58.94l-35.15,0l-5.28,61.86c-0.65,7.6,0.19,13.34,2.5,17.22
		c1.59,2.8,3.85,5.22,6.8,7.28c2.94,2.05,6.17,3.51,9.69,4.37c5.31,1.26,11.84,1.9,19.59,1.9l60.48,0.01l7.9-92.62l-35.15,0
		L192.73,210.85z"/>
	<path class="st2" d="M531.68,261.27v24.74c-2.02,0.05-4.05,0.06-6.09,0.06c-72.73-0.01-136.23-21.43-170.28-53.27h-0.8l0.06-0.69
		l1.02-11.95l6.82-79.98l35.16,0.01l-6.04,70.67l44.22,0.01l-1.87,21.94l-77.99-0.01l32.91,0.01
		c31.06,16.38,76.12,27.11,126.74,28.38c3.32,0.08,6.68,0.13,10.06,0.13C527.64,261.32,529.67,261.31,531.68,261.27z"/>
	<polygon class="st2" points="450.01,162.19 485.17,162.19 487.04,140.19 451.89,140.19 	"/>
	<polygon class="st2" points="448.85,175.84 443.99,232.81 479.14,232.81 484,175.84 	"/>
	<polygon class="st2" points="584.97,232.82 589.83,175.85 557.23,175.85 552.37,232.82 	"/>
	<path class="st2" d="M601.86,162.71c1.83,0.34,3.31,0.92,4.44,1.73c1.19,0.86,1.96,1.92,2.33,3.19c0.36,1.27,0.44,3.17,0.22,5.7
		l-5.08,59.49l35.15,0l5.16-60.51c0.47-5.56,0.23-10.12-0.72-13.67c-0.96-3.55-2.77-6.62-5.45-9.2c-4.19-4.03-9.24-6.56-15.13-7.61
		c-6.08-1.09-14.45-1.63-25.09-1.63l-91.47-0.01l-7.9,92.62l35.15,0l6.02-70.62l55.09,0.01
		C597.61,162.2,600.03,162.37,601.86,162.71z"/>
	<path class="st2" d="M779.17,187.07c-0.56,6.56,0.65,12.88,3.63,18.95c2.98,6.07,7.46,11.27,13.46,15.62
		c5.81,4.26,12.67,7.5,20.57,9.75c7.9,2.24,16.49,3.36,25.75,3.36c6.61,0,12.77-0.5,18.46-1.49c5.69-0.99,11.56-2.6,17.61-4.82
		l2.42-28.38c-2.94,2.72-5.4,4.75-7.37,6.11c-1.97,1.36-4.24,2.6-6.79,3.73c-5.43,2.35-11.36,3.53-17.78,3.53
		c-8.57,0-15.91-1.84-22.02-5.5c-3.95-2.4-6.94-5.4-8.97-9c-2.02-3.6-2.86-7.46-2.51-11.58c0.27-3.21,1.26-6.3,2.96-9.27
		c1.7-2.96,3.97-5.58,6.81-7.84c3.51-2.81,7.66-4.84,12.43-6.11c4.77-1.27,10.65-1.9,17.64-1.9l28.82,0l1.88-22l-26.84,0
		c-12.79,0-23.73,0.9-32.83,2.71c-5.26,1.09-10.5,2.86-15.72,5.33c-5.22,2.47-9.96,5.4-14.22,8.79c-5.14,4.16-9.21,8.82-12.2,13.95
		C781.37,176.15,779.64,181.51,779.17,187.07z"/>
	<polygon class="st2" points="842.22,197.88 881.25,197.88 883.12,175.88 844.1,175.88 	"/>
	<polygon class="st2" points="992.27,140.24 905.43,140.23 903.56,162.23 990.4,162.24 	"/>
	<polygon class="st2" points="987.35,197.89 989.23,175.89 902.39,175.88 897.53,232.85 984.37,232.86 986.24,210.93 934.55,210.92 
		935.67,197.89 	"/>
	<path class="st2" d="M1075.19,171.75l-5.21,61.12l35.15,0l5.32-62.34c0.44-5.15,0.04-9.54-1.19-13.17
		c-1.24-3.62-3.39-6.63-6.46-9.03c-4.01-3.21-8.74-5.34-14.2-6.38c-6.01-1.13-13.09-1.7-21.21-1.7l-55.94-0.01l-7.9,92.62l35.15,0
		l6.02-70.62l17.01,0c5.98,0,9.88,0.86,11.69,2.58C1074.87,166.28,1075.46,168.58,1075.19,171.75z"/>
</g>
</svg>
