<?xml version="1.0" encoding="utf-8"?>
<!-- Generator: Adobe Illustrator 24.2.0, SVG Export Plug-In . SVG Version: 6.00 Build 0)  -->
<svg version="1.1" id="Capa_1" xmlns="http://www.w3.org/2000/svg" xmlns:xlink="http://www.w3.org/1999/xlink" x="0px" y="0px"
	 viewBox="0 0 313 97" style="enable-background:new 0 0 313 97;" xml:space="preserve">
<style type="text/css">
	.st0{fill:#FFFF00;}
	.st1{fill:#8CC63F;}
</style>
<g>
	<g>
		<path d="M160.89,83.46l1.23,0.31c-0.26,1.01-0.72,1.78-1.39,2.3c-0.67,0.53-1.48,0.79-2.45,0.79c-1,0-1.81-0.2-2.44-0.61
			c-0.63-0.41-1.1-1-1.43-1.77c-0.33-0.77-0.49-1.6-0.49-2.48c0-0.97,0.18-1.81,0.55-2.53c0.37-0.72,0.89-1.26,1.57-1.64
			c0.68-0.37,1.43-0.56,2.25-0.56c0.93,0,1.71,0.24,2.34,0.71c0.63,0.47,1.07,1.14,1.32,1.99l-1.21,0.28
			c-0.21-0.67-0.53-1.17-0.94-1.47c-0.41-0.31-0.92-0.46-1.54-0.46c-0.71,0-1.31,0.17-1.79,0.51c-0.48,0.34-0.81,0.8-1.01,1.38
			c-0.19,0.58-0.29,1.17-0.29,1.78c0,0.79,0.11,1.48,0.34,2.06c0.23,0.59,0.59,1.03,1.07,1.32c0.48,0.29,1.01,0.44,1.57,0.44
			c0.69,0,1.27-0.2,1.75-0.59C160.4,84.83,160.72,84.24,160.89,83.46z"/>
		<path d="M163.5,82.2c0-1.54,0.41-2.74,1.24-3.61c0.83-0.87,1.89-1.31,3.2-1.31c0.86,0,1.63,0.2,2.31,0.61
			c0.69,0.41,1.21,0.98,1.57,1.71c0.36,0.73,0.54,1.56,0.54,2.49c0,0.94-0.19,1.78-0.57,2.52c-0.38,0.74-0.92,1.3-1.61,1.68
			c-0.7,0.38-1.45,0.57-2.25,0.57c-0.87,0-1.65-0.21-2.34-0.63c-0.69-0.42-1.21-1-1.56-1.73C163.68,83.78,163.5,83.01,163.5,82.2z
			 M164.77,82.22c0,1.12,0.3,2,0.9,2.64c0.6,0.64,1.35,0.96,2.26,0.96c0.92,0,1.68-0.32,2.28-0.97c0.6-0.65,0.89-1.57,0.89-2.76
			c0-0.75-0.13-1.41-0.38-1.98c-0.26-0.56-0.63-1-1.12-1.31c-0.49-0.31-1.04-0.46-1.65-0.46c-0.87,0-1.62,0.3-2.24,0.89
			C165.08,79.83,164.77,80.82,164.77,82.22z"/>
		<path d="M174.16,86.71l0-9.27l1.85,0l2.19,6.56c0.2,0.61,0.35,1.07,0.44,1.37c0.11-0.34,0.27-0.83,0.49-1.49l2.22-6.45l1.65,0
			l0,9.27l-1.18,0l0-7.76l-2.69,7.76l-1.11,0l-2.68-7.89l0,7.89L174.16,86.71z"/>
		<path d="M191.31,77.45l1.23,0l0,5.36c0,0.93-0.11,1.67-0.32,2.22c-0.21,0.55-0.59,0.99-1.14,1.34c-0.55,0.34-1.27,0.52-2.17,0.52
			c-0.87,0-1.58-0.15-2.13-0.45c-0.55-0.3-0.95-0.73-1.18-1.3c-0.24-0.57-0.35-1.34-0.35-2.32l0-5.36l1.23,0l0,5.35
			c0,0.81,0.07,1.4,0.22,1.78c0.15,0.38,0.41,0.68,0.77,0.88c0.36,0.21,0.81,0.31,1.34,0.31c0.9,0,1.54-0.2,1.93-0.61
			s0.58-1.19,0.58-2.36L191.31,77.45z"/>
		<path d="M194.81,86.72l0-9.27l1.26,0l4.87,7.28l0-7.28l1.18,0l0,9.27l-1.26,0l-4.87-7.28l0,7.28L194.81,86.72z"/>
		<path d="M204.63,86.72l0-9.27l1.23,0l0,9.27L204.63,86.72z"/>
		<path d="M214.88,83.47l1.23,0.31c-0.26,1.01-0.72,1.78-1.39,2.3c-0.67,0.53-1.48,0.79-2.45,0.79c-1,0-1.81-0.2-2.44-0.61
			c-0.63-0.41-1.1-1-1.43-1.77c-0.33-0.77-0.49-1.6-0.49-2.48c0-0.97,0.18-1.81,0.55-2.53c0.37-0.72,0.89-1.26,1.57-1.64
			c0.68-0.37,1.43-0.56,2.25-0.56c0.93,0,1.71,0.24,2.34,0.71c0.63,0.47,1.07,1.14,1.32,1.99l-1.21,0.28
			c-0.21-0.67-0.53-1.17-0.94-1.47c-0.41-0.31-0.92-0.46-1.54-0.46c-0.71,0-1.31,0.17-1.79,0.51c-0.48,0.34-0.81,0.8-1.01,1.38
			c-0.19,0.58-0.29,1.17-0.29,1.78c0,0.79,0.11,1.48,0.34,2.06c0.23,0.59,0.59,1.03,1.07,1.32c0.48,0.29,1.01,0.44,1.57,0.44
			c0.69,0,1.27-0.2,1.75-0.59C214.39,84.84,214.71,84.25,214.88,83.47z"/>
		<path d="M216.84,86.72l3.56-9.27l1.32,0l3.79,9.27l-1.4,0l-1.08-2.81l-3.88,0l-1.02,2.81L216.84,86.72z M219.52,82.91l3.14,0
			l-0.97-2.57c-0.3-0.78-0.51-1.42-0.66-1.92c-0.12,0.59-0.28,1.18-0.5,1.77L219.52,82.91z"/>
		<path d="M233.36,83.47l1.23,0.31c-0.26,1.01-0.72,1.78-1.39,2.3c-0.67,0.53-1.48,0.79-2.45,0.79c-1,0-1.81-0.2-2.44-0.61
			c-0.63-0.41-1.1-1-1.43-1.77c-0.33-0.77-0.49-1.6-0.49-2.48c0-0.97,0.18-1.81,0.55-2.53c0.37-0.72,0.89-1.26,1.57-1.64
			c0.68-0.37,1.43-0.56,2.25-0.56c0.93,0,1.71,0.24,2.34,0.71c0.63,0.47,1.07,1.14,1.32,1.99l-1.21,0.28
			c-0.21-0.67-0.53-1.17-0.94-1.47c-0.41-0.31-0.92-0.46-1.54-0.46c-0.71,0-1.31,0.17-1.79,0.51c-0.48,0.34-0.81,0.8-1.01,1.38
			c-0.19,0.58-0.29,1.17-0.29,1.78c0,0.79,0.11,1.48,0.34,2.06c0.23,0.59,0.59,1.03,1.07,1.32c0.48,0.29,1.01,0.44,1.57,0.44
			c0.69,0,1.27-0.2,1.75-0.59C232.87,84.84,233.19,84.25,233.36,83.47z"/>
		<path d="M236.55,86.72l0-9.27l1.23,0l0,9.27L236.55,86.72z"/>
		<path d="M239.81,82.21c0-1.54,0.41-2.74,1.24-3.61c0.83-0.87,1.89-1.31,3.2-1.31c0.86,0,1.63,0.2,2.31,0.61
			c0.69,0.41,1.21,0.98,1.57,1.71c0.36,0.73,0.54,1.56,0.54,2.49c0,0.94-0.19,1.78-0.57,2.52c-0.38,0.74-0.92,1.3-1.61,1.68
			c-0.7,0.38-1.45,0.57-2.25,0.57c-0.87,0-1.65-0.21-2.34-0.63c-0.69-0.42-1.21-1-1.56-1.73C239.99,83.79,239.81,83.02,239.81,82.21
			z M241.08,82.23c0,1.12,0.3,2,0.9,2.64c0.6,0.64,1.35,0.96,2.26,0.96c0.92,0,1.68-0.32,2.28-0.97c0.6-0.65,0.89-1.57,0.89-2.76
			c0-0.75-0.13-1.41-0.38-1.98c-0.25-0.56-0.63-1-1.12-1.31c-0.49-0.31-1.04-0.46-1.65-0.46c-0.87,0-1.62,0.3-2.24,0.89
			C241.39,79.84,241.08,80.83,241.08,82.23z M243.47,76.88l0.84-1.77l1.49,0l-1.39,1.77L243.47,76.88z"/>
		<path d="M250.49,86.72l0-9.27l1.26,0l4.87,7.28l0-7.28l1.18,0l0,9.27l-1.26,0l-4.87-7.28l0,7.28L250.49,86.72z"/>
		<path d="M266.59,86.72L263,77.45l1.33,0l2.41,6.73c0.19,0.54,0.36,1.05,0.49,1.52c0.14-0.51,0.31-1.01,0.5-1.52l2.5-6.73l1.25,0
			l-3.63,9.27L266.59,86.72z"/>
		<path d="M273.04,86.72l0-9.27l1.23,0l0,9.27L273.04,86.72z"/>
		<path d="M276.25,83.75l1.16-0.1c0.05,0.46,0.18,0.84,0.38,1.14c0.2,0.3,0.51,0.54,0.93,0.72c0.42,0.18,0.9,0.28,1.42,0.28
			c0.47,0,0.88-0.07,1.24-0.21c0.36-0.14,0.62-0.33,0.8-0.57c0.17-0.24,0.26-0.51,0.26-0.79c0-0.29-0.08-0.54-0.25-0.76
			c-0.17-0.22-0.45-0.4-0.83-0.55c-0.25-0.1-0.8-0.25-1.65-0.45c-0.85-0.2-1.45-0.4-1.79-0.58c-0.44-0.23-0.77-0.52-0.99-0.86
			s-0.33-0.73-0.33-1.15c0-0.47,0.13-0.91,0.4-1.31c0.27-0.41,0.65-0.72,1.16-0.93c0.51-0.21,1.08-0.32,1.7-0.32
			c0.69,0,1.29,0.11,1.82,0.33c0.52,0.22,0.93,0.55,1.21,0.98c0.28,0.43,0.43,0.92,0.45,1.46l-1.18,0.09
			c-0.06-0.59-0.28-1.03-0.64-1.33c-0.36-0.3-0.9-0.45-1.62-0.45c-0.74,0-1.28,0.14-1.62,0.41c-0.34,0.27-0.51,0.6-0.51,0.98
			c0,0.33,0.12,0.61,0.36,0.82c0.24,0.21,0.85,0.44,1.85,0.66c1,0.23,1.68,0.42,2.05,0.59c0.54,0.25,0.94,0.56,1.19,0.95
			s0.39,0.82,0.39,1.32c0,0.49-0.14,0.96-0.42,1.39c-0.28,0.44-0.69,0.78-1.22,1.02c-0.53,0.24-1.12,0.36-1.79,0.36
			c-0.84,0-1.54-0.12-2.11-0.37c-0.57-0.24-1.01-0.61-1.33-1.1C276.44,84.92,276.27,84.37,276.25,83.75z"/>
		<path d="M291.64,77.46l1.23,0l0,5.36c0,0.93-0.11,1.67-0.32,2.22c-0.21,0.55-0.59,0.99-1.14,1.34c-0.55,0.34-1.27,0.52-2.17,0.52
			c-0.87,0-1.58-0.15-2.13-0.45c-0.55-0.3-0.95-0.73-1.18-1.3c-0.24-0.57-0.35-1.34-0.35-2.32l0-5.36l1.23,0l0,5.35
			c0,0.81,0.07,1.4,0.22,1.78c0.15,0.38,0.41,0.68,0.77,0.88s0.81,0.31,1.34,0.31c0.9,0,1.54-0.2,1.93-0.61
			c0.38-0.41,0.58-1.19,0.58-2.36L291.64,77.46z"/>
		<path d="M294.13,86.73l3.56-9.27l1.32,0l3.79,9.27l-1.4,0l-1.08-2.81l-3.88,0l-1.02,2.81L294.13,86.73z M296.81,82.92l3.14,0
			l-0.97-2.57c-0.3-0.78-0.51-1.42-0.66-1.92c-0.12,0.59-0.28,1.18-0.5,1.77L296.81,82.92z"/>
		<path d="M303.98,86.73l0-9.27l1.23,0l0,8.18l4.57,0l0,1.09L303.98,86.73z"/>
	</g>
	<path class="st0" d="M197.86,61.94c-8.77,6.88-26.81,10.2-46.98,7.72c14.99,0,28.44-2.99,37.63-7.72L197.86,61.94z"/>
	<path class="st0" d="M201.38,35.55l-7.02,0c-8.22-6.49-23.26-10.96-40.68-11.39c-0.92-0.02-1.86-0.04-2.79-0.04
		c-0.57,0-1.13,0-1.69,0.01l0-6.87c0.56-0.01,1.12-0.02,1.69-0.02C173.66,17.25,193.17,24.8,201.38,35.55z"/>
	<path class="st0" d="M216.95,35.55l-5.62,0c-7.56-13.74-29.28-22.97-60.47-22.15c-0.99,0.03-1.97,0.06-2.95,0.11l0-9.47
		c0.98-0.03,1.96-0.04,2.95-0.04C182.69,4,209.43,16.19,216.95,35.55z"/>
	<path class="st1" d="M97.47,35.06c8.77-6.88,26.81-10.2,46.98-7.72c-14.99,0-28.44,2.99-37.63,7.72L97.47,35.06z"/>
	<path class="st1" d="M146.14,72.87l0,6.87c-0.56,0.01-1.12,0.02-1.69,0.02c-20.2,0-37.83-5.95-47.28-14.79l9.3,0
		c8.62,4.55,21.14,7.53,35.19,7.88c0.92,0.02,1.86,0.04,2.79,0.04C145.01,72.89,145.58,72.88,146.14,72.87z"/>
	<path class="st1" d="M147.42,83.49l0,9.47c-0.98,0.03-1.96,0.04-2.95,0.04C114.62,93,89.24,82.27,80,64.96
		c1.52-0.01,2.84-0.05,3.97-0.13c0.7-0.04,1.37-0.14,2.04-0.28c8.97,12.01,29.69,19.8,58.46,19.05
		C145.46,83.57,146.45,83.53,147.42,83.49z"/>
	<g>
		<path d="M5.42,39.24l12.12,0c2.59,0,4.65,0.18,6.2,0.55c1.54,0.36,2.86,0.99,3.96,1.87c0.9,0.73,1.58,1.59,2.04,2.58
			c0.46,0.99,0.64,2.01,0.55,3.05c-0.09,1.04-0.44,2.04-1.04,3c-0.61,0.96-1.43,1.8-2.47,2.55c-1.26,0.88-2.63,1.5-4.11,1.87
			c-1.47,0.36-3.37,0.55-5.7,0.55l-3.15,0l-0.83,9.71l-9.76,0l1.35-15.82l11.07,0c0.91,0,1.62-0.03,2.13-0.09
			c0.51-0.06,0.92-0.18,1.24-0.34c0.71-0.35,1.1-0.85,1.15-1.49c0.06-0.67-0.23-1.14-0.86-1.43c-0.63-0.29-1.72-0.43-3.26-0.43
			l-11.15,0L5.42,39.24z"/>
		<path d="M63.46,39.24l-2.19,25.72l-16.79,0c-2.15,0-3.96-0.18-5.44-0.53c-0.98-0.24-1.87-0.64-2.69-1.21
			c-0.82-0.57-1.45-1.24-1.89-2.02c-0.64-1.08-0.87-2.67-0.69-4.78l1.47-17.18l9.76,0l-1.4,16.37c-0.07,0.83-0.05,1.44,0.05,1.82
			c0.11,0.38,0.34,0.69,0.71,0.93c0.28,0.19,0.66,0.32,1.15,0.4c0.48,0.08,1.14,0.11,1.98,0.11l4.54,0l1.67-19.63L63.46,39.24z"/>
		<path d="M92.44,49.5c0.85-0.98,1.34-2.12,1.45-3.43c0.09-1.07-0.11-2.06-0.59-2.99c-0.48-0.92-1.2-1.68-2.14-2.25
			c-1.42-0.84-3.18-1.33-5.28-1.45c-1.37-0.09-3.13-0.13-5.26-0.13l-11.83,0l-0.52,6.11l12.23,0c1.12,0,1.94,0.15,2.47,0.43
			c0.53,0.29,0.77,0.73,0.71,1.32c-0.04,0.49-0.28,0.9-0.71,1.24c-0.3,0.24-0.71,0.41-1.24,0.51c-0.52,0.1-1.22,0.15-2.1,0.15
			l-11.68,0l-0.52,6.11l11.65,0c1.36,0,2.27,0.17,2.71,0.51c0.42,0.34,0.61,0.77,0.57,1.3c-0.05,0.55-0.33,1.02-0.85,1.39
			c-0.52,0.37-1.43,0.55-2.72,0.55l-11.68,0l-0.52,6.09l13.42,0c1.52-0.01,2.84-0.05,3.97-0.13c0.7-0.04,1.37-0.14,2.04-0.28
			c0.46-0.1,0.91-0.22,1.36-0.36c1.09-0.35,2.03-0.8,2.83-1.36c0.89-0.61,1.61-1.37,2.16-2.26c0.55-0.89,0.86-1.81,0.94-2.75
			c0.15-1.73-0.41-3.15-1.68-4.25c-0.42-0.38-0.87-0.68-1.34-0.9c-0.47-0.23-1.11-0.46-1.91-0.7c1.07-0.39,1.9-0.77,2.5-1.14
			C91.47,50.46,91.99,50.02,92.44,49.5z"/>
		<path d="M107.22,58.88l1.68-19.63l-9.76,0l-1.89,22.21l-0.28,3.32l-0.02,0.19l22.04,0l0.52-6.09L107.22,58.88z"/>
		<path d="M132.9,49.15l-1.35,15.82l-9.76,0l1.35-15.82L132.9,49.15z M133.74,39.25l-0.52,6.11l-9.76,0l0.52-6.11L133.74,39.25z"/>
		<path d="M139.07,39.25l25.4,0c2.96,0,5.28,0.15,6.97,0.45c1.64,0.29,3.04,0.99,4.2,2.11c0.74,0.72,1.25,1.57,1.51,2.55
			c0.27,0.99,0.33,2.25,0.2,3.8l-1.43,16.8l-9.76,0l1.41-16.52c0.06-0.7,0.04-1.23-0.06-1.58c-0.1-0.35-0.32-0.65-0.65-0.89
			c-0.31-0.23-0.72-0.39-1.23-0.48c-0.51-0.09-1.18-0.14-2.02-0.14l-15.3,0l-1.67,19.61l-9.76,0L139.07,39.25z M162.28,49.15
			l-1.35,15.82l-9.05,0l1.35-15.82L162.28,49.15z"/>
		<path d="M203.06,39.26l9.01,25.72l-33.69,0L187,49.16l8.92,0l-4.66,9.73l9.21,0l-8.03-19.63L203.06,39.26z"/>
		<path d="M244.57,39.26l-0.52,6.11l-8,0c-1.94,0-3.57,0.18-4.9,0.53c-1.32,0.35-2.48,0.92-3.45,1.7c-0.79,0.63-1.42,1.35-1.89,2.18
			c-0.47,0.82-0.75,1.68-0.82,2.57c-0.1,1.14,0.13,2.22,0.7,3.21c0.56,1,1.39,1.83,2.49,2.5c1.7,1.02,3.74,1.53,6.11,1.53
			c1.78,0,3.43-0.33,4.94-0.98c0.71-0.31,1.34-0.66,1.89-1.04c0.55-0.38,1.23-0.94,2.05-1.7l-0.67,7.88
			c-1.68,0.62-3.31,1.06-4.89,1.34c-1.58,0.28-3.29,0.41-5.13,0.41c-2.57,0-4.95-0.31-7.15-0.93c-2.19-0.62-4.1-1.52-5.71-2.71
			c-1.66-1.21-2.91-2.65-3.74-4.34c-0.83-1.68-1.16-3.44-1.01-5.26c0.13-1.55,0.61-3.03,1.44-4.46c0.83-1.43,1.96-2.72,3.39-3.87
			c1.18-0.94,2.5-1.76,3.95-2.44c1.45-0.68,2.9-1.18,4.36-1.48c2.53-0.5,5.57-0.75,9.12-0.75L244.57,39.26z M243.72,49.16
			l-0.52,6.11l-10.84,0l0.52-6.11L243.72,49.16z"/>
		<path d="M273.19,49.16l-0.52,6.11l-14.35,0L258,58.89l14.35,0l-0.52,6.09l-24.11,0l1.35-15.82L273.19,49.16z M274.03,39.27
			l-0.52,6.11l-24.11,0l0.52-6.11L274.03,39.27z"/>
		<path d="M279.35,39.27l15.53,0c2.26,0,4.22,0.16,5.89,0.47c1.51,0.29,2.83,0.88,3.94,1.77c0.85,0.67,1.45,1.5,1.79,2.51
			c0.34,1.01,0.45,2.22,0.33,3.66l-1.48,17.31l-9.76,0l1.45-16.97c0.08-0.88-0.09-1.52-0.49-1.92c-0.5-0.48-1.58-0.72-3.24-0.72
			l-4.72,0l-1.67,19.61l-9.76,0L279.35,39.27z"/>
	</g>
</g>
</svg>
